<svg width="32" height="32" viewBox="0 0 32 32" fill="none" xmlns="http://www.w3.org/2000/svg">
<path fill-rule="evenodd" clip-rule="evenodd" d="M16.5303 6.13617C16.8232 6.42906 16.8232 6.90393 16.5303 7.19683L8.47726 15.25H25.3333C25.7475 15.25 26.0833 15.5858 26.0833 16C26.0833 16.4142 25.7475 16.75 25.3333 16.75H8.47731L16.5303 24.8028C16.8232 25.0957 16.8232 25.5706 16.5303 25.8635C16.2374 26.1564 15.7625 26.1564 15.4696 25.8635L6.1363 16.5303C5.99565 16.3897 5.91663 16.1989 5.91663 16C5.91662 15.8011 5.99564 15.6103 6.13629 15.4697L15.4696 6.13618C15.7625 5.84328 16.2374 5.84328 16.5303 6.13617Z" fill="white"/>
</svg>
