<svg width="32" height="32" viewBox="0 0 32 32" fill="none" xmlns="http://www.w3.org/2000/svg">
<path fill-rule="evenodd" clip-rule="evenodd" d="M16 5.9165C16.1989 5.9165 16.3897 5.99552 16.5303 6.13617L25.8637 15.4695C26.1566 15.7624 26.1566 16.2373 25.8637 16.5302C25.5708 16.8231 25.0959 16.8231 24.803 16.5302L16.75 8.47716V25.3332C16.75 25.7474 16.4142 26.0832 16 26.0832C15.5858 26.0832 15.25 25.7474 15.25 25.3332V8.47717L7.19702 16.5302C6.90412 16.8231 6.42925 16.8231 6.13636 16.5302C5.84346 16.2373 5.84346 15.7624 6.13636 15.4695L15.4697 6.13617C15.6103 5.99552 15.8011 5.9165 16 5.9165Z" fill="white"/>
</svg>
