<svg width="291" height="76" viewBox="0 0 291 76" fill="none" xmlns="http://www.w3.org/2000/svg">
<path d="M128.697 13.8447H110.174V30.5538H125.689C127.949 30.5538 129.079 31.6996 129.079 33.9911V41.0089C129.079 43.3004 127.949 44.4462 125.689 44.4462H110.174V71.5627C110.174 73.8542 109.028 75 106.736 75H99.7186C97.427 75 96.2812 73.8542 96.2812 71.5627V13.2241C96.2812 9.5958 97.5702 6.49268 100.148 3.9147C102.726 1.3049 105.845 0 109.505 0H128.697C130.988 0 132.134 1.14577 132.134 3.4373V10.4551C132.134 12.7148 130.988 13.8447 128.697 13.8447Z" fill="white"/>
<path d="M171.568 75H152.042C148.414 75 145.311 73.711 142.733 71.133C140.155 68.5551 138.866 65.4519 138.866 61.8237V3.4373C138.866 1.14577 140.011 0 142.303 0H171.281C173.573 0 174.719 1.14577 174.719 3.4373V10.4551C174.719 12.7148 173.573 13.8447 171.281 13.8447H152.71V30.5538H168.226C170.517 30.5538 171.663 31.6996 171.663 33.9911V41.0089C171.663 43.3004 170.517 44.4462 168.226 44.4462H152.71V61.1553H171.568C173.859 61.1553 175.005 62.3011 175.005 64.5926V71.5627C175.005 73.8542 173.859 75 171.568 75Z" fill="white"/>
<path d="M238.022 13.8447H219.499V30.5538H235.015C237.274 30.5538 238.404 31.6996 238.404 33.9911V41.0089C238.404 43.3004 237.274 44.4462 235.015 44.4462H219.499V71.5627C219.499 73.8542 218.353 75 216.062 75H209.044C206.752 75 205.607 73.8542 205.607 71.5627V13.2241C205.607 9.5958 206.896 6.49268 209.473 3.9147C212.051 1.3049 215.17 0 218.831 0H238.022C240.314 0 241.459 1.14577 241.459 3.4373V10.4551C241.459 12.7148 240.314 13.8447 238.022 13.8447Z" fill="white"/>
<path d="M285.428 71.7537C282.978 73.9179 280.097 75 276.787 75H262.036C258.375 75 255.145 73.6314 252.344 70.8943C249.575 68.1254 248.191 64.895 248.191 61.2031V13.7969C248.191 10.1369 249.591 6.92234 252.392 4.15341C255.193 1.38447 258.423 0 262.083 0H276.74C280.4 0 283.646 1.40038 286.479 4.20115C289.343 7.00191 290.775 10.2323 290.775 13.8924V16.0885C290.775 18.3482 289.629 19.478 287.338 19.478H280.32C278.06 19.478 276.931 18.3482 276.931 16.0885V13.8447H262.036V61.1553H276.931V58.5296C276.931 56.2381 278.06 55.0923 280.32 55.0923H287.338C289.629 55.0923 290.775 56.2381 290.775 58.5296V61.1553C290.775 65.1655 288.993 68.6983 285.428 71.7537Z" fill="white"/>
<circle cx="37.5" cy="38.1406" r="37.5" fill="white"/>
<path fill-rule="evenodd" clip-rule="evenodd" d="M27.8752 10.823C34.0668 8.67174 40.8021 8.67174 46.9937 10.823C52.6727 12.8095 57.5934 16.5122 61.0754 21.4183L61.0755 21.4184C64.5582 26.3242 66.4292 32.1918 66.4301 38.2084C66.4301 38.2085 66.4301 38.2085 66.4301 38.2086V38.8631C66.309 44.5459 64.5118 50.066 61.2636 54.7314L61.2626 54.7328L61.2616 54.7342C57.7738 59.7728 52.7794 63.5762 46.9958 65.6003C41.2118 67.624 34.9357 67.764 29.0672 65.9997C23.1992 64.2357 18.0408 60.6583 14.3318 55.7804C10.7276 51.0405 8.67229 45.31 8.43811 39.369L8.43843 38.2088C8.44007 32.1919 10.311 26.3242 13.7935 21.4184C17.2755 16.5124 22.1966 12.8097 27.8752 10.823ZM47.8385 8.39589C41.0998 6.05418 33.7691 6.05418 27.0304 8.39589L27.0291 8.39632L27.0279 8.39676C20.8458 10.5593 15.4885 14.5899 11.6978 19.9308C8.14967 24.9291 6.13854 30.8442 5.89383 36.9509L5.85264 36.9518V38.8908L5.85294 38.9045C5.99619 45.5735 8.24827 52.0258 12.286 57.3359C16.3237 62.6461 21.9393 66.5405 28.3274 68.4609C34.7158 70.3815 41.5481 70.229 47.8445 68.0261C54.1397 65.8229 59.5763 61.6832 63.3733 56.1989C66.9132 51.1143 68.8707 45.0972 68.9997 38.9034L69 38.89V38.2082C68.9991 31.6588 66.9624 25.2714 63.1711 19.9308M47.8385 8.39589L47.8398 8.39631L47.8385 8.39589ZM47.8398 8.39631L47.841 8.39674L47.8398 8.39631ZM47.841 8.39674C54.0235 10.5591 59.3805 14.5899 63.171 19.9307L47.841 8.39674Z" fill="black"/>
<path d="M37.4246 27.5013L47.61 34.8982L43.7208 46.874H31.1328L27.2437 34.8982L37.4246 27.5013Z" fill="black"/>
<path d="M27.2438 10.2091L37.4248 17.6064L47.6102 10.2091L47.4173 9.60966H47.4178C40.9524 7.36289 33.9187 7.36289 27.4533 9.60966L27.2438 10.2091Z" fill="black"/>
<path d="M57.0078 31.8435L67.206 39.2408L67.7156 38.8765V38.2084C67.7257 31.5831 65.5534 25.1389 61.5353 19.8721H60.9098L57.0078 31.8435Z" fill="black"/>
<path d="M45.6444 66.8461L46.154 67.2144C52.7158 65.2385 58.4139 61.0969 62.3186 55.4652L62.1257 54.8742H49.5377L45.6444 66.8461Z" fill="black"/>
<path d="M12.5349 55.4657C16.4421 61.0938 22.1394 65.2336 28.6995 67.2104L29.2091 66.8421L25.3155 54.8495H12.7275L12.5349 55.4657Z" fill="black"/>
<path d="M7.13844 38.2085V38.8767L7.63967 39.2409L17.8334 31.8436L13.9443 19.851H13.3188C9.29448 25.1232 7.12168 31.5764 7.13848 38.2087L7.13844 38.2085Z" fill="black"/>
<path fill-rule="evenodd" clip-rule="evenodd" d="M36.1394 16.3214V28.7857H38.7094V16.3214H36.1394Z" fill="black"/>
<path fill-rule="evenodd" clip-rule="evenodd" d="M57.8457 30.225L45.991 34.0725L46.7843 36.5169L58.639 32.6694L57.8457 30.225Z" fill="black"/>
<path fill-rule="evenodd" clip-rule="evenodd" d="M41.9258 46.5905L49.2537 56.6698L51.3323 55.1586L44.0045 45.0792L41.9258 46.5905Z" fill="black"/>
<path fill-rule="evenodd" clip-rule="evenodd" d="M30.8486 45.0792L23.5208 55.1586L25.5994 56.6698L32.9273 46.5905L30.8486 45.0792Z" fill="black"/>
<path fill-rule="evenodd" clip-rule="evenodd" d="M16.214 32.6693L28.0687 36.5167L28.862 34.0723L17.0073 30.2248L16.214 32.6693Z" fill="black"/>
</svg>
