<svg width="75" height="76" viewBox="0 0 75 76" fill="none" xmlns="http://www.w3.org/2000/svg">
<circle cx="37.5" cy="38.1406" r="37.5" fill="#E8282B"/>
<path fill-rule="evenodd" clip-rule="evenodd" d="M27.8752 10.823C34.0668 8.67174 40.8021 8.67175 46.9937 10.823C52.6727 12.8095 57.5934 16.5123 61.0754 21.4183L61.0755 21.4184C64.5582 26.3242 66.4292 32.1918 66.4301 38.2084C66.4301 38.2085 66.4301 38.2085 66.4301 38.2086V38.8631C66.309 44.5459 64.5118 50.066 61.2636 54.7314L61.2626 54.7328L61.2616 54.7342C57.7738 59.7728 52.7794 63.5762 46.9958 65.6003C41.2118 67.624 34.9357 67.764 29.0672 65.9997C23.1992 64.2357 18.0408 60.6583 14.3318 55.7804C10.7276 51.0405 8.67229 45.31 8.43811 39.369L8.43843 38.2088C8.44007 32.192 10.311 26.3242 13.7935 21.4184C17.2755 16.5124 22.1966 12.8097 27.8752 10.823ZM47.8385 8.39589C41.0998 6.05419 33.7691 6.05419 27.0304 8.39589L27.0291 8.39633L27.0279 8.39676C20.8458 10.5593 15.4885 14.59 11.6978 19.9308C8.14967 24.9291 6.13854 30.8442 5.89383 36.9509L5.85264 36.9519V38.8908L5.85294 38.9046C5.99619 45.5735 8.24827 52.0258 12.286 57.3359C16.3237 62.6461 21.9393 66.5405 28.3274 68.4609C34.7158 70.3815 41.5481 70.229 47.8445 68.0261C54.1397 65.8229 59.5763 61.6832 63.3733 56.1989C66.9132 51.1143 68.8707 45.0972 68.9997 38.9034L69 38.89V38.2082C68.9991 31.6588 66.9624 25.2714 63.1711 19.9309M47.8385 8.39589L47.8398 8.39632L47.8385 8.39589ZM47.8398 8.39632L47.841 8.39674L47.8398 8.39632ZM47.841 8.39674C54.0235 10.5591 59.3805 14.5899 63.171 19.9307L47.841 8.39674Z" fill="white"/>
<path d="M37.4246 27.5013L47.61 34.8982L43.7208 46.874H31.1328L27.2437 34.8982L37.4246 27.5013Z" fill="white"/>
<path d="M27.2438 10.2091L37.4248 17.6064L47.6102 10.2091L47.4173 9.60966H47.4178C40.9524 7.3629 33.9187 7.3629 27.4533 9.60966L27.2438 10.2091Z" fill="white"/>
<path d="M57.0078 31.8435L67.206 39.2408L67.7156 38.8765V38.2084C67.7257 31.5831 65.5534 25.1389 61.5353 19.8721H60.9098L57.0078 31.8435Z" fill="white"/>
<path d="M45.6444 66.8461L46.154 67.2144C52.7158 65.2385 58.4139 61.0969 62.3186 55.4652L62.1257 54.8742H49.5377L45.6444 66.8461Z" fill="white"/>
<path d="M12.5349 55.4658C16.4421 61.0938 22.1394 65.2337 28.6995 67.2104L29.2091 66.8421L25.3155 54.8495H12.7275L12.5349 55.4658Z" fill="white"/>
<path d="M7.13844 38.2085V38.8767L7.63967 39.2409L17.8334 31.8436L13.9443 19.851H13.3188C9.29448 25.1232 7.12168 31.5764 7.13848 38.2087L7.13844 38.2085Z" fill="white"/>
<path fill-rule="evenodd" clip-rule="evenodd" d="M36.1394 16.3214V28.7857H38.7094V16.3214H36.1394Z" fill="white"/>
<path fill-rule="evenodd" clip-rule="evenodd" d="M57.8457 30.225L45.991 34.0725L46.7843 36.5169L58.639 32.6694L57.8457 30.225Z" fill="white"/>
<path fill-rule="evenodd" clip-rule="evenodd" d="M41.9258 46.5905L49.2537 56.6698L51.3323 55.1586L44.0045 45.0793L41.9258 46.5905Z" fill="white"/>
<path fill-rule="evenodd" clip-rule="evenodd" d="M30.8486 45.0793L23.5207 55.1586L25.5994 56.6698L32.9272 46.5905L30.8486 45.0793Z" fill="white"/>
<path fill-rule="evenodd" clip-rule="evenodd" d="M16.214 32.6693L28.0687 36.5167L28.862 34.0723L17.0073 30.2249L16.214 32.6693Z" fill="white"/>
</svg>
