<svg width="291" height="77" viewBox="0 0 291 77" fill="none" xmlns="http://www.w3.org/2000/svg">
<path d="M128.697 14.4853H110.174V31.1944H125.689C127.949 31.1944 129.079 32.3402 129.079 34.6317V41.6495C129.079 43.9411 127.949 45.0868 125.689 45.0868H110.174V72.2033C110.174 74.4949 109.028 75.6406 106.736 75.6406H99.7186C97.427 75.6406 96.2812 74.4949 96.2812 72.2033V13.8647C96.2812 10.2364 97.5702 7.1333 100.148 4.55533C102.726 1.94553 105.845 0.640625 109.505 0.640625H128.697C130.988 0.640625 132.134 1.78639 132.134 4.07793V11.0957C132.134 13.3555 130.988 14.4853 128.697 14.4853Z" fill="#E8282B"/>
<path d="M171.568 75.6406H152.042C148.414 75.6406 145.311 74.3516 142.733 71.7737C140.155 69.1957 138.866 66.0926 138.866 62.4643V4.07793C138.866 1.78639 140.011 0.640625 142.303 0.640625H171.281C173.573 0.640625 174.719 1.78639 174.719 4.07793V11.0957C174.719 13.3555 173.573 14.4853 171.281 14.4853H152.71V31.1944H168.226C170.517 31.1944 171.663 32.3402 171.663 34.6317V41.6495C171.663 43.9411 170.517 45.0868 168.226 45.0868H152.71V61.7959H171.568C173.859 61.7959 175.005 62.9417 175.005 65.2332V72.2033C175.005 74.4949 173.859 75.6406 171.568 75.6406Z" fill="#E8282B"/>
<path d="M238.022 14.4853H219.499V31.1944H235.015C237.274 31.1944 238.404 32.3402 238.404 34.6317V41.6495C238.404 43.9411 237.274 45.0868 235.015 45.0868H219.499V72.2033C219.499 74.4949 218.353 75.6406 216.062 75.6406H209.044C206.752 75.6406 205.607 74.4949 205.607 72.2033V13.8647C205.607 10.2364 206.896 7.1333 209.473 4.55533C212.051 1.94553 215.17 0.640625 218.831 0.640625H238.022C240.314 0.640625 241.459 1.78639 241.459 4.07793V11.0957C241.459 13.3555 240.314 14.4853 238.022 14.4853Z" fill="#E8282B"/>
<path d="M285.428 72.3943C282.978 74.5585 280.097 75.6406 276.787 75.6406H262.036C258.375 75.6406 255.145 74.2721 252.344 71.535C249.575 68.766 248.191 65.5356 248.191 61.8437V14.4376C248.191 10.7775 249.591 7.56297 252.392 4.79403C255.193 2.02509 258.423 0.640625 262.083 0.640625H276.74C280.4 0.640625 283.646 2.04101 286.479 4.84177C289.343 7.64253 290.775 10.873 290.775 14.533V16.7291C290.775 18.9888 289.629 20.1187 287.338 20.1187H280.32C278.06 20.1187 276.931 18.9888 276.931 16.7291V14.4853H262.036V61.7959H276.931V59.1702C276.931 56.8787 278.06 55.7329 280.32 55.7329H287.338C289.629 55.7329 290.775 56.8787 290.775 59.1702V61.7959C290.775 65.8061 288.993 69.3389 285.428 72.3943Z" fill="#E8282B"/>
<circle cx="37.5" cy="38.7812" r="37.5" fill="#E8282B"/>
<path fill-rule="evenodd" clip-rule="evenodd" d="M27.8752 11.4636C34.0668 9.31237 40.8021 9.31237 46.9937 11.4636C52.6727 13.4501 57.5934 17.1529 61.0754 22.0589L61.0755 22.059C64.5582 26.9648 66.4292 32.8324 66.4301 38.8491C66.4301 38.8491 66.4301 38.8492 66.4301 38.8492V39.5037C66.309 45.1865 64.5118 50.7067 61.2636 55.372L61.2626 55.3734L61.2616 55.3749C57.7738 60.4135 52.7794 64.2168 46.9958 66.2409C41.2118 68.2646 34.9357 68.4046 29.0672 66.6404C23.1992 64.8763 18.0408 61.299 14.3318 56.421C10.7276 51.6811 8.67229 45.9506 8.43811 40.0096L8.43843 38.8494C8.44007 32.8326 10.311 26.9648 13.7935 22.059C17.2755 17.153 22.1966 13.4503 27.8752 11.4636ZM47.8385 9.03652C41.0998 6.69482 33.7691 6.69482 27.0304 9.03652L27.0291 9.03695L27.0279 9.03739C20.8458 11.1999 15.4885 15.2306 11.6978 20.5715C8.14967 25.5697 6.13854 31.4848 5.89383 37.5916L5.85264 37.5925V39.5314L5.85294 39.5452C5.99619 46.2141 8.24827 52.6664 12.286 57.9766C16.3237 63.2867 21.9393 67.1811 28.3274 69.1015C34.7158 71.0221 41.5481 70.8696 47.8445 68.6667C54.1397 66.4636 59.5763 62.3239 63.3733 56.8395C66.9132 51.7549 68.8707 45.7379 68.9997 39.544L69 39.5306V38.8489C68.9991 32.2994 66.9624 25.912 63.1711 20.5715M47.8385 9.03652L47.8398 9.03694L47.8385 9.03652ZM47.8398 9.03694L47.841 9.03737L47.8398 9.03694ZM47.841 9.03737C54.0235 11.1997 59.3805 15.2306 63.171 20.5713L47.841 9.03737Z" fill="white"/>
<path d="M37.4246 28.1419L47.61 35.5389L43.7208 47.5146H31.1328L27.2437 35.5389L37.4246 28.1419Z" fill="white"/>
<path d="M27.2438 10.8497L37.4248 18.2471L47.6102 10.8497L47.4173 10.2503H47.4178C40.9524 8.00353 33.9187 8.00353 27.4533 10.2503L27.2438 10.8497Z" fill="white"/>
<path d="M57.0078 32.4841L67.206 39.8814L67.7156 39.5172V38.849C67.7257 32.2237 65.5534 25.7795 61.5353 20.5127H60.9098L57.0078 32.4841Z" fill="white"/>
<path d="M45.6444 67.4868L46.154 67.855C52.7158 65.8792 58.4139 61.7376 62.3186 56.1059L62.1257 55.5148H49.5377L45.6444 67.4868Z" fill="white"/>
<path d="M12.5349 56.1064C16.4421 61.7345 22.1394 65.8743 28.6995 67.851L29.2091 67.4828L25.3155 55.4901H12.7275L12.5349 56.1064Z" fill="white"/>
<path d="M7.13844 38.8491V39.5173L7.63967 39.8816L17.8334 32.4843L13.9443 20.4916H13.3188C9.29448 25.7638 7.12168 32.217 7.13848 38.8493L7.13844 38.8491Z" fill="white"/>
<path fill-rule="evenodd" clip-rule="evenodd" d="M36.1394 16.9621V29.4263H38.7094V16.9621H36.1394Z" fill="white"/>
<path fill-rule="evenodd" clip-rule="evenodd" d="M57.8457 30.8656L45.991 34.7131L46.7843 37.1575L58.639 33.31L57.8457 30.8656Z" fill="white"/>
<path fill-rule="evenodd" clip-rule="evenodd" d="M41.9258 47.2311L49.2537 57.3104L51.3323 55.7992L44.0045 45.7199L41.9258 47.2311Z" fill="white"/>
<path fill-rule="evenodd" clip-rule="evenodd" d="M30.8486 45.7199L23.5208 55.7992L25.5994 57.3104L32.9273 47.2311L30.8486 45.7199Z" fill="white"/>
<path fill-rule="evenodd" clip-rule="evenodd" d="M16.214 33.3099L28.0687 37.1574L28.862 34.7129L17.0073 30.8655L16.214 33.3099Z" fill="white"/>
</svg>
