<svg width="28" height="24" viewBox="0 0 28 24" fill="none" xmlns="http://www.w3.org/2000/svg">
<path d="M24.6667 5.33333V2.66667C24.6667 1.196 23.4707 0 22 0H4.66667C2.46133 0 0.666668 1.79467 0.666668 4V20C0.666668 22.9347 3.05867 24 4.66667 24H24.6667C26.1373 24 27.3333 22.804 27.3333 21.3333V8C27.3333 6.52933 26.1373 5.33333 24.6667 5.33333ZM22 17.3333H19.3333V12H22V17.3333ZM4.66667 5.33333C4.32336 5.31798 3.99921 5.17079 3.7617 4.92242C3.5242 4.67406 3.39164 4.34365 3.39164 4C3.39164 3.65635 3.5242 3.32594 3.7617 3.07758C3.99921 2.82921 4.32336 2.68202 4.66667 2.66667H22V5.33333H4.66667Z" fill="white"/>
</svg>
