<svg width="32" height="32" viewBox="0 0 32 32" fill="none" xmlns="http://www.w3.org/2000/svg">
<path fill-rule="evenodd" clip-rule="evenodd" d="M15.4697 6.13617C15.7626 5.84328 16.2374 5.84328 16.5303 6.13618L25.8637 15.4697C26.0043 15.6103 26.0834 15.8011 26.0834 16C26.0834 16.1989 26.0043 16.3897 25.8637 16.5303L16.5303 25.8635C16.2374 26.1564 15.7626 26.1564 15.4697 25.8635C15.1768 25.5706 15.1768 25.0957 15.4697 24.8028L23.5227 16.75H6.66669C6.25247 16.75 5.91669 16.4142 5.91669 16C5.91669 15.5858 6.25247 15.25 6.66669 15.25H23.5227L15.4697 7.19683C15.1768 6.90393 15.1768 6.42906 15.4697 6.13617Z" fill="white"/>
</svg>
